<svg width="434" height="285" viewBox="0 0 434 285" fill="none" xmlns="http://www.w3.org/2000/svg">
<path d="M0 179.002L73.5 179" stroke="#9393AD" stroke-width="1.4" stroke-dasharray="2 2"/>
<path opacity="0.5" d="M82.9541 188.908C88.4515 188.908 92.9081 184.452 92.9081 178.954C92.9081 173.457 88.4515 169 82.9541 169C77.4566 169 73 173.457 73 178.954C73 184.452 77.4566 188.908 82.9541 188.908Z" fill="#343FF5"/>
<path d="M83 183C85.2091 183 87 181.209 87 179C87 176.791 85.2091 175 83 175C80.7909 175 79 176.791 79 179C79 181.209 80.7909 183 83 183Z" fill="#343FF5"/>
<path d="M101.035 188.109L101.228 169.73L117.587 179.646L101.035 188.109Z" fill="url(#paint0_linear_6262_54330)"/>
<path d="M123.53 188.109L123.723 169.73L140.072 179.646L123.53 188.109Z" fill="url(#paint1_linear_6262_54330)"/>
<rect x="0.606218" y="1.05" width="143.916" height="143.916" rx="71.9582" transform="matrix(0.866025 0.5 -2.20305e-08 1 155.276 -12.3031)" stroke="#9393AD" stroke-width="1.4"/>
<line x1="251.497" y1="183.02" x2="251.497" y2="276.073" stroke="#9393AD" stroke-width="1.4" stroke-dasharray="2 2"/>
<line x1="234.929" y1="184.298" x2="234.929" y2="285" stroke="#9393AD" stroke-width="1.4" stroke-dasharray="2 2"/>
<line x1="173.745" y1="143.508" x2="173.745" y2="244.21" stroke="#9393AD" stroke-width="1.4" stroke-dasharray="2 2"/>
<line x1="186.494" y1="137.139" x2="186.494" y2="230.193" stroke="#9393AD" stroke-width="1.4" stroke-dasharray="2 2"/>
<rect x="0.606218" y="1.05" width="143.916" height="143.916" rx="71.9582" transform="matrix(0.866025 0.5 -2.20305e-08 1 145.081 -4.66505)" fill="url(#paint2_linear_6262_54330)" stroke="#9393AD" stroke-width="1.4"/>
<path d="M174.98 57.8473C175.471 57.4207 175.991 57.0316 176.511 56.6493C176.535 56.6289 176.588 56.6527 176.612 56.6323C176.659 56.5913 176.736 56.5947 176.783 56.5538L176.831 56.5128C177.191 56.3319 177.581 56.1408 178.025 56.0282C179.597 55.5572 181.229 55.448 182.955 55.7551C188.476 56.7039 194.624 61.6323 199.448 69.6732C206.181 80.8507 205.578 92.2363 200.204 96.936C193.412 104.646 181.743 114.134 197.899 138.001C200.807 142.294 202.959 145.694 212.11 154.028C206.122 151.847 200.577 148.25 194.399 142.861C190.031 137.492 183.162 127.431 180.821 117.84C177.286 103.308 187.04 90.2705 191.751 85.8029C198.224 79.5879 187.749 62.7688 180.04 70.3456C176.009 74.2841 168.962 87.9565 171.41 102.523C172.84 110.81 174.75 117.352 182.322 129.192C180.921 127.427 179.556 125.554 178.232 123.574C160.645 94.4991 162.69 66.4309 174.98 57.8473Z" fill="#2B4075"/>
<path d="M234.851 152.133C234.361 152.559 233.841 152.948 233.32 153.331C233.297 153.351 233.244 153.327 233.22 153.348C233.173 153.389 233.096 153.385 233.048 153.426L233.001 153.467C232.641 153.648 232.25 153.839 231.807 153.952C230.235 154.423 228.597 154.529 226.877 154.225C221.356 153.276 215.208 148.348 210.384 140.307C203.651 129.129 204.254 117.744 209.627 113.044C216.42 105.334 228.089 95.846 211.927 71.9758C209.024 67.6857 206.867 64.2829 197.716 55.9485C203.704 58.1293 209.249 61.7266 215.426 67.1157C219.795 72.4843 226.664 82.5525 229.005 92.1361C232.54 106.669 222.786 119.706 218.075 124.174C211.602 130.389 222.077 147.208 229.785 139.631C233.817 135.692 240.863 122.02 238.416 107.454C236.985 99.1669 235.076 92.6242 227.504 80.7846C228.905 82.5491 230.27 84.4228 231.594 86.4024C249.181 115.471 247.141 143.549 234.851 152.133Z" fill="#2B4075"/>
<path d="M360.296 179.002L433.796 179" stroke="#9393AD" stroke-width="1.4" stroke-dasharray="2 2"/>
<path opacity="0.5" d="M350.25 188.908C355.748 188.908 360.205 184.452 360.205 178.954C360.205 173.457 355.748 169 350.25 169C344.753 169 340.296 173.457 340.296 178.954C340.296 184.452 344.753 188.908 350.25 188.908Z" fill="#343FF5"/>
<path d="M350.296 183C352.506 183 354.296 181.209 354.296 179C354.296 176.791 352.506 175 350.296 175C348.087 175 346.296 176.791 346.296 179C346.296 181.209 348.087 183 350.296 183Z" fill="#343FF5"/>
<path d="M331.333 188.109L331.141 169.73L314.782 179.646L331.333 188.109Z" fill="url(#paint3_linear_6262_54330)"/>
<path d="M308.838 188.109L308.646 169.73L292.296 179.646L308.838 188.109Z" fill="url(#paint4_linear_6262_54330)"/>
<defs>
<linearGradient id="paint0_linear_6262_54330" x1="117.134" y1="169.899" x2="101.605" y2="180.693" gradientUnits="userSpaceOnUse">
<stop stop-color="#BDCEEE" stop-opacity="0.8"/>
<stop offset="1" stop-color="#C2D2F0" stop-opacity="0.3"/>
</linearGradient>
<linearGradient id="paint1_linear_6262_54330" x1="139.62" y1="169.899" x2="124.094" y2="180.685" gradientUnits="userSpaceOnUse">
<stop stop-color="#BDCEEE" stop-opacity="0.8"/>
<stop offset="1" stop-color="#C2D2F0" stop-opacity="0.3"/>
</linearGradient>
<linearGradient id="paint2_linear_6262_54330" x1="145.316" y1="145.316" x2="17.2085" y2="7.64823" gradientUnits="userSpaceOnUse">
<stop stop-color="#D5D7FF"/>
<stop offset="0.652143" stop-color="#F2F3FF"/>
</linearGradient>
<linearGradient id="paint3_linear_6262_54330" x1="315.235" y1="169.899" x2="330.764" y2="180.693" gradientUnits="userSpaceOnUse">
<stop stop-color="#BDCEEE" stop-opacity="0.8"/>
<stop offset="1" stop-color="#C2D2F0" stop-opacity="0.3"/>
</linearGradient>
<linearGradient id="paint4_linear_6262_54330" x1="292.749" y1="169.899" x2="308.275" y2="180.685" gradientUnits="userSpaceOnUse">
<stop stop-color="#BDCEEE" stop-opacity="0.8"/>
<stop offset="1" stop-color="#C2D2F0" stop-opacity="0.3"/>
</linearGradient>
</defs>
</svg>
