<svg width="118" height="118" viewBox="0 0 118 118" fill="none" xmlns="http://www.w3.org/2000/svg">
<path d="M58.0488 69.7731C70.8909 69.7731 81.3015 59.5148 81.3015 46.8604C81.3015 34.206 70.8909 23.9476 58.0488 23.9476C45.2067 23.9476 34.7961 34.206 34.7961 46.8604C34.7961 59.5148 45.2067 69.7731 58.0488 69.7731Z" fill="url(#paint0_linear_6221_52898)"/>
<path d="M27.9016 67.8366C24.3956 73.1174 21.5271 79.1721 21.5271 84.8171C21.5271 89.888 23.5419 94.7513 27.1283 98.337C30.7146 101.923 35.5788 103.937 40.6506 103.937C45.7225 103.937 50.5867 101.923 54.173 98.337C57.7594 94.7513 59.7742 89.888 59.7742 84.8171C59.7742 72.9808 49.0369 61.3358 42.3892 54.712L36.9132 64.8042L32.4964 74.0433L27.9016 67.8366Z" fill="url(#paint1_linear_6221_52898)"/>
<path d="M32.7157 78.7087C30.4261 82.1742 28.5527 86.1476 28.5527 89.8521C28.5527 93.1799 29.8685 96.3715 32.2106 98.7246C34.5527 101.078 37.7293 102.4 41.0416 102.4C44.3538 102.4 47.5304 101.078 49.8725 98.7246C52.2146 96.3715 53.5304 93.1799 53.5304 89.8521C53.5304 82.0846 46.5183 74.4425 42.177 70.0957L38.6008 76.7187L35.7164 82.7818L32.7157 78.7087Z" fill="white"/>
<path d="M93.4319 111.953L42.1759 103.592C40.6108 103.336 39.132 104.38 38.8729 105.922C38.6138 107.464 39.6725 108.921 41.2376 109.177L92.4936 117.538C94.0587 117.793 95.5375 116.75 95.7966 115.208C96.0557 113.666 94.997 112.208 93.4319 111.953Z" fill="#676F78"/>
<path d="M46.8158 106.528C47.3896 103.113 44.3484 99.7718 40.0232 99.0662C35.6979 98.3607 31.7263 100.557 31.1525 103.973C30.5787 107.389 33.6199 110.729 37.9452 111.435C42.2704 112.14 46.242 109.944 46.8158 106.528Z" fill="#232325"/>
<path d="M96.4602 30.7619C92.8176 31.7524 92.0024 32.5559 90.9974 36.1459C89.9903 32.558 89.1751 31.7545 85.5325 30.7619C89.1751 29.7715 89.9903 28.968 90.9953 25.3779C92.0002 28.968 92.8155 29.7715 96.458 30.7619H96.4602Z" fill="url(#paint2_linear_6221_52898)"/>
<path d="M81.6297 10.768C74.3445 12.7489 72.7139 14.3559 70.7041 21.536C68.6899 14.3602 67.0593 12.7532 59.7742 10.768C67.0593 8.78713 68.6899 7.1801 70.6997 0C72.7096 7.1801 74.3401 8.78713 81.6253 10.768H81.6297Z" fill="url(#paint3_linear_6221_52898)"/>
<path d="M73.5137 46.7072C73.5137 55.2969 66.5053 62.2682 57.8501 62.2682C49.1949 62.2682 42.1865 55.2969 42.1865 46.7072C42.1865 38.1176 49.1949 31.1462 57.8501 31.1462C66.5053 31.1462 73.5137 38.1176 73.5137 46.7072Z" fill="#E5EFFB" stroke="#676F78" stroke-width="1.5"/>
<path d="M51.4392 41.6645C51.549 41.5361 51.6654 41.4114 51.7818 41.288C51.7871 41.2818 51.799 41.2806 51.8043 41.2744C51.8149 41.262 51.832 41.2546 51.8426 41.2423L51.8532 41.2299C51.9339 41.1596 52.0212 41.0842 52.1204 41.0176C52.4722 40.7682 52.8373 40.578 53.2235 40.4533C54.4588 40.0484 55.8344 40.2978 56.9137 41.2484C58.4202 42.5671 58.2853 44.6895 57.083 46.1007C55.5632 48.2046 52.9523 51.1394 56.5671 53.7692C57.2179 54.2421 57.6993 54.6322 59.7468 55.1841C58.4069 55.415 57.1663 55.3434 55.7841 55.0137C54.8067 54.4989 53.2698 53.3963 52.746 51.9061C51.9551 49.6466 54.1374 46.2698 55.1916 44.9697C56.6399 43.1696 54.2961 41.2213 52.5714 43.3968C51.6694 44.5302 50.0928 47.7391 50.6403 50.1183C50.9604 51.4678 51.3876 52.4518 53.082 53.8025C52.7685 53.6297 52.4629 53.4334 52.1667 53.2136C48.2318 49.7911 48.6894 44.5006 51.4392 41.6645Z" fill="#232325"/>
<path d="M64.1998 52.3399C64.0984 52.4683 63.991 52.593 63.8836 52.7165C63.8787 52.7226 63.8677 52.7239 63.8628 52.73C63.8531 52.7424 63.8372 52.7498 63.8274 52.7621L63.8177 52.7745C63.7432 52.8449 63.6626 52.9202 63.571 52.9869C63.2463 53.2363 62.9081 53.4264 62.5529 53.5511C61.4126 53.9561 60.143 53.7067 59.1468 52.756C57.7562 51.4373 57.8808 49.315 58.9905 47.9037C60.3932 45.7999 62.8031 42.8651 59.4654 40.2352C58.866 39.7623 58.4204 39.3722 56.5305 38.8203C57.7672 38.5894 58.9124 38.661 60.1881 38.9907C61.0903 39.5055 62.5089 40.6093 62.9924 42.0983C63.7224 44.3578 61.7081 47.7346 60.7351 49.0347C59.3982 50.8348 61.5616 52.7831 63.1535 50.6077C63.9861 49.4742 65.4414 46.2653 64.9359 43.8861C64.6405 42.5366 64.2462 41.5526 62.6823 40.2019C62.9716 40.3747 63.2536 40.5711 63.5271 40.7908C67.1591 44.2121 66.7379 49.5039 64.1998 52.3399Z" fill="#232325"/>
<path d="M58.0488 69.7731C70.8909 69.7731 81.3015 59.5148 81.3015 46.8604C81.3015 34.206 70.8909 23.9476 58.0488 23.9476C45.2067 23.9476 34.7961 34.206 34.7961 46.8604C34.7961 59.5148 45.2067 69.7731 58.0488 69.7731Z" fill="url(#paint4_linear_6221_52898)"/>
<path d="M27.9016 67.8366C24.3956 73.1174 21.5271 79.1721 21.5271 84.8171C21.5271 89.888 23.5419 94.7513 27.1283 98.337C30.7146 101.923 35.5788 103.937 40.6506 103.937C45.7225 103.937 50.5867 101.923 54.173 98.337C57.7594 94.7513 59.7742 89.888 59.7742 84.8171C59.7742 72.9808 49.0369 61.3358 42.3892 54.712L36.9132 64.8042L32.4964 74.0433L27.9016 67.8366Z" fill="url(#paint5_linear_6221_52898)"/>
<path d="M32.7157 78.7087C30.4261 82.1742 28.5527 86.1476 28.5527 89.8521C28.5527 93.1799 29.8685 96.3715 32.2106 98.7246C34.5527 101.078 37.7293 102.4 41.0416 102.4C44.3538 102.4 47.5304 101.078 49.8725 98.7246C52.2146 96.3715 53.5304 93.1799 53.5304 89.8521C53.5304 82.0846 46.5183 74.4425 42.177 70.0957L38.6008 76.7187L35.7164 82.7818L32.7157 78.7087Z" fill="white"/>
<path d="M93.4319 111.953L42.1759 103.592C40.6108 103.336 39.132 104.38 38.8729 105.922C38.6138 107.464 39.6725 108.921 41.2376 109.177L92.4936 117.538C94.0587 117.793 95.5375 116.75 95.7966 115.208C96.0557 113.666 94.997 112.208 93.4319 111.953Z" fill="#676F78"/>
<path d="M46.8158 106.528C47.3896 103.113 44.3484 99.7718 40.0232 99.0662C35.6979 98.3607 31.7263 100.557 31.1525 103.973C30.5787 107.389 33.6199 110.729 37.9452 111.435C42.2704 112.14 46.242 109.944 46.8158 106.528Z" fill="#232325"/>
<path d="M96.4602 30.7619C92.8176 31.7524 92.0024 32.5559 90.9974 36.1459C89.9903 32.558 89.1751 31.7545 85.5325 30.7619C89.1751 29.7715 89.9903 28.968 90.9953 25.3779C92.0002 28.968 92.8155 29.7715 96.458 30.7619H96.4602Z" fill="url(#paint6_linear_6221_52898)"/>
<path d="M81.6297 10.768C74.3445 12.7489 72.7139 14.3559 70.7041 21.536C68.6899 14.3602 67.0593 12.7532 59.7742 10.768C67.0593 8.78713 68.6899 7.1801 70.6997 0C72.7096 7.1801 74.3401 8.78713 81.6253 10.768H81.6297Z" fill="url(#paint7_linear_6221_52898)"/>
<path d="M73.5137 46.7072C73.5137 55.2969 66.5053 62.2682 57.8501 62.2682C49.1949 62.2682 42.1865 55.2969 42.1865 46.7072C42.1865 38.1176 49.1949 31.1462 57.8501 31.1462C66.5053 31.1462 73.5137 38.1176 73.5137 46.7072Z" fill="#E5EFFB" stroke="#676F78" stroke-width="1.5"/>
<path d="M51.4392 41.6645C51.549 41.5361 51.6654 41.4114 51.7818 41.288C51.7871 41.2818 51.799 41.2806 51.8043 41.2744C51.8149 41.262 51.832 41.2546 51.8426 41.2423L51.8532 41.2299C51.9339 41.1596 52.0212 41.0842 52.1204 41.0176C52.4722 40.7682 52.8373 40.578 53.2235 40.4533C54.4588 40.0484 55.8344 40.2978 56.9137 41.2484C58.4202 42.5671 58.2853 44.6895 57.083 46.1007C55.5632 48.2046 52.9523 51.1394 56.5671 53.7692C57.2179 54.2421 57.6993 54.6322 59.7468 55.1841C58.4069 55.415 57.1663 55.3434 55.7841 55.0137C54.8067 54.4989 53.2698 53.3963 52.746 51.9061C51.9551 49.6466 54.1374 46.2698 55.1916 44.9697C56.6399 43.1696 54.2961 41.2213 52.5714 43.3968C51.6694 44.5302 50.0928 47.7391 50.6403 50.1183C50.9604 51.4678 51.3876 52.4518 53.082 53.8025C52.7685 53.6297 52.4629 53.4334 52.1667 53.2136C48.2318 49.7911 48.6894 44.5006 51.4392 41.6645Z" fill="#232325"/>
<path d="M64.1998 52.3399C64.0984 52.4683 63.991 52.593 63.8836 52.7165C63.8787 52.7226 63.8677 52.7239 63.8628 52.73C63.8531 52.7424 63.8372 52.7498 63.8274 52.7621L63.8177 52.7745C63.7432 52.8449 63.6626 52.9202 63.571 52.9869C63.2463 53.2363 62.9081 53.4264 62.5529 53.5511C61.4126 53.9561 60.143 53.7067 59.1468 52.756C57.7562 51.4373 57.8808 49.315 58.9905 47.9037C60.3932 45.7999 62.8031 42.8651 59.4654 40.2352C58.866 39.7623 58.4204 39.3722 56.5305 38.8203C57.7672 38.5894 58.9124 38.661 60.1881 38.9907C61.0903 39.5055 62.5089 40.6093 62.9924 42.0983C63.7224 44.3578 61.7081 47.7346 60.7351 49.0347C59.3982 50.8348 61.5616 52.7831 63.1535 50.6077C63.9861 49.4742 65.4414 46.2653 64.9359 43.8861C64.6405 42.5366 64.2462 41.5526 62.6823 40.2019C62.9716 40.3747 63.2536 40.5711 63.5271 40.7908C67.1591 44.2121 66.7379 49.5039 64.1998 52.3399Z" fill="#232325"/>
<defs>
<linearGradient id="paint0_linear_6221_52898" x1="80.0285" y1="24.3689" x2="39.9224" y2="55.7834" gradientUnits="userSpaceOnUse">
<stop stop-color="#BDCEEE" stop-opacity="0.8"/>
<stop offset="1" stop-color="#C2D2F0" stop-opacity="0.3"/>
</linearGradient>
<linearGradient id="paint1_linear_6221_52898" x1="33.9144" y1="96.9539" x2="70.4099" y2="68.2638" gradientUnits="userSpaceOnUse">
<stop stop-color="#7646FF"/>
<stop offset="0.72"/>
</linearGradient>
<linearGradient id="paint2_linear_6221_52898" x1="96.1611" y1="25.4769" x2="86.737" y2="32.8586" gradientUnits="userSpaceOnUse">
<stop stop-color="#BDCEEE" stop-opacity="0.8"/>
<stop offset="1" stop-color="#C2D2F0" stop-opacity="0.3"/>
</linearGradient>
<linearGradient id="paint3_linear_6221_52898" x1="81.0314" y1="0.197992" x2="62.1833" y2="14.9614" gradientUnits="userSpaceOnUse">
<stop stop-color="#BDCEEE" stop-opacity="0.8"/>
<stop offset="1" stop-color="#C2D2F0" stop-opacity="0.3"/>
</linearGradient>
<linearGradient id="paint4_linear_6221_52898" x1="80.0285" y1="24.3689" x2="39.9224" y2="55.7834" gradientUnits="userSpaceOnUse">
<stop stop-color="#BDCEEE" stop-opacity="0.8"/>
<stop offset="1" stop-color="#C2D2F0" stop-opacity="0.3"/>
</linearGradient>
<linearGradient id="paint5_linear_6221_52898" x1="33.9144" y1="96.9539" x2="70.4099" y2="68.2638" gradientUnits="userSpaceOnUse">
<stop stop-color="#7646FF"/>
<stop offset="0.72"/>
</linearGradient>
<linearGradient id="paint6_linear_6221_52898" x1="96.1611" y1="25.4769" x2="86.737" y2="32.8586" gradientUnits="userSpaceOnUse">
<stop stop-color="#BDCEEE" stop-opacity="0.8"/>
<stop offset="1" stop-color="#C2D2F0" stop-opacity="0.3"/>
</linearGradient>
<linearGradient id="paint7_linear_6221_52898" x1="81.0314" y1="0.197992" x2="62.1833" y2="14.9614" gradientUnits="userSpaceOnUse">
<stop stop-color="#BDCEEE" stop-opacity="0.8"/>
<stop offset="1" stop-color="#C2D2F0" stop-opacity="0.3"/>
</linearGradient>
</defs>
</svg>
