<svg width="118" height="118" viewBox="0 0 118 118" fill="none" xmlns="http://www.w3.org/2000/svg">
<path d="M91.3476 19.1641H27.2208C21.3488 19.1641 16.5886 23.8547 16.5886 29.6409V92.8302C16.5886 98.6164 21.3488 103.307 27.2208 103.307H91.3476C97.2197 103.307 101.98 98.6164 101.98 92.8302V29.6409C101.98 23.8547 97.2197 19.1641 91.3476 19.1641Z" stroke="#676F78" stroke-width="2" stroke-linecap="round" stroke-linejoin="round"/>
<path d="M90.6821 57.4883V68.4396" stroke="#676F78" stroke-width="2" stroke-linecap="round" stroke-linejoin="round"/>
<path d="M90.6781 70.6122V84.4349C90.6781 88.7003 87.163 92.164 82.8342 92.164H35.5435C31.2148 92.164 27.6997 88.7003 27.6997 84.4349V37.8355C27.6997 33.57 31.2148 30.1063 35.5435 30.1063H82.8342C87.163 30.1063 90.6781 33.57 90.6781 37.8355V54.0474" stroke="#676F78" stroke-width="2" stroke-linecap="round" stroke-linejoin="round"/>
<path d="M20.4214 21.5933L26.7748 27.8538" stroke="#676F78" stroke-width="2" stroke-linecap="round" stroke-linejoin="round"/>
<path d="M98.2934 21.5933L91.9399 27.8538" stroke="#676F78" stroke-width="2" stroke-linecap="round" stroke-linejoin="round"/>
<path d="M20.354 100.681L26.7074 94.4205" stroke="#676F78" stroke-width="2" stroke-linecap="round" stroke-linejoin="round"/>
<path d="M98.2216 100.681L91.8682 94.4205" stroke="#676F78" stroke-width="2" stroke-linecap="round" stroke-linejoin="round"/>
<path d="M90.1808 48.3668H101.797V55.6677H90.1808C88.4167 55.6677 86.9783 54.2758 86.9783 52.5688V51.492C86.9783 49.785 88.4167 48.3931 90.1808 48.3931V48.3668Z" fill="url(#paint0_linear_6221_52873)" stroke="url(#paint1_linear_6221_52873)" stroke-width="2" stroke-linecap="round" stroke-linejoin="round"/>
<path d="M90.1808 68.4436H101.797V75.7445H90.1808C88.4167 75.7445 86.9783 74.3526 86.9783 72.6456V71.5688C86.9783 69.8618 88.4167 68.4699 90.1808 68.4699V68.4436Z" fill="url(#paint2_linear_6221_52873)" stroke="url(#paint3_linear_6221_52873)" stroke-width="2" stroke-linecap="round" stroke-linejoin="round"/>
<path d="M32.0146 103.306H46.7775V105.532C46.7775 107.449 45.2031 109 43.2581 109H35.534C33.5891 109 32.0146 107.449 32.0146 105.532V103.306Z" fill="url(#paint4_linear_6221_52873)" stroke="url(#paint5_linear_6221_52873)" stroke-width="2" stroke-linecap="round" stroke-linejoin="round"/>
<path d="M70.0095 103.306H84.7724V105.532C84.7724 107.449 83.1979 109 81.253 109H73.5289C71.584 109 70.0095 107.449 70.0095 105.532V103.306Z" fill="url(#paint6_linear_6221_52873)" stroke="url(#paint7_linear_6221_52873)" stroke-width="2" stroke-linecap="round" stroke-linejoin="round"/>
<path d="M79.8451 61.4871C79.8451 72.9953 70.4559 82.3325 58.8638 82.3325C47.2718 82.3325 37.8826 72.9953 37.8826 61.4871C37.8826 49.9789 47.2718 40.6416 58.8638 40.6416C70.4559 40.6416 79.8451 49.9789 79.8451 61.4871Z" fill="#E5EFFB" stroke="url(#paint8_linear_6221_52873)" stroke-width="1.5"/>
<path d="M50.6108 55.0395L50.6179 55.0322L50.6245 55.0244C50.7544 54.8725 50.8926 54.7234 51.0351 54.572C51.0409 54.5682 51.0471 54.5639 51.0535 54.559C51.0622 54.5524 51.0718 54.5445 51.0817 54.5353C51.0872 54.5312 51.095 54.5254 51.103 54.519C51.1165 54.5082 51.1364 54.4911 51.1568 54.4674C51.2577 54.3796 51.3542 54.298 51.4602 54.2268L51.4603 54.2269L51.4669 54.2222C51.9094 53.9085 52.3631 53.6731 52.8387 53.5196L52.8401 53.5191C54.3652 53.0192 56.0654 53.3242 57.4075 54.5064L57.4083 54.5071C59.2378 56.1085 59.1026 58.7079 57.5989 60.4729L57.5904 60.4829L57.5827 60.4935C57.4387 60.6929 57.2851 60.9007 57.1265 61.1153C56.7414 61.6365 56.3265 62.1978 55.9459 62.7773C55.4062 63.599 54.9153 64.4857 54.6434 65.4079C54.3701 66.3347 54.3155 67.3065 54.6612 68.2836C55.0063 69.2591 55.7378 70.2044 56.9725 71.1027L56.9727 71.1028C57.0072 71.128 57.0416 71.153 57.0759 71.178C57.4658 71.4624 57.8481 71.7413 58.4318 72.0291C58.7788 72.2001 59.1943 72.3733 59.7245 72.5556C58.5865 72.5955 57.4602 72.464 56.2446 72.1771C55.6229 71.846 54.832 71.3332 54.1135 70.6721C53.3795 69.9966 52.7377 69.1815 52.4148 68.2632C51.9351 66.8928 52.3484 65.1287 53.1074 63.4372C53.8591 61.7621 54.9135 60.2381 55.5981 59.3939L55.5988 59.3929C56.1247 58.7393 56.3247 58.0468 56.2573 57.417C56.1902 56.7898 55.8598 56.2502 55.3741 55.9057C54.377 55.1984 52.8406 55.3603 51.6185 56.9017C50.9948 57.6854 50.1584 59.1561 49.5681 60.8272C48.9793 62.4943 48.6163 64.4141 48.9992 66.0778L48.9991 66.0778L48.9996 66.0799C49.0942 66.4787 49.1969 66.8588 49.3248 67.2287C46.8135 63.0746 47.735 58.0055 50.6108 55.0395Z" fill="#232325" stroke="url(#paint9_linear_6221_52873)" stroke-width="0.654545"/>
<path d="M67.0265 68.7243L67.0198 68.7319L67.0135 68.7399C66.894 68.8912 66.767 69.0397 66.6358 69.1907C66.6307 69.1945 66.6253 69.1986 66.6197 69.2032C66.6113 69.2101 66.6022 69.2181 66.593 69.2274C66.5878 69.2316 66.5807 69.2373 66.5735 69.2436C66.5605 69.2549 66.5418 69.2725 66.5226 69.2963C66.4297 69.3839 66.3417 69.4644 66.2453 69.5346L66.2453 69.5345L66.2386 69.5396C65.8321 69.8518 65.4146 70.0854 64.9815 70.2374L64.9804 70.2378C63.5916 70.7311 62.0394 70.4335 60.8063 69.2567L60.8055 69.256C59.1152 67.6532 59.2401 65.0399 60.6307 63.2715L60.6386 63.2614L60.6457 63.2508C60.7785 63.0516 60.9198 62.8446 61.0659 62.6307C61.9192 61.3809 62.9342 59.8945 63.3572 58.3398C63.6084 57.4164 63.6581 56.4501 63.3405 55.4782C63.0229 54.5065 62.3484 53.5603 61.2049 52.6593C61.1742 52.6351 61.1438 52.611 61.1133 52.5869C60.7528 52.3015 60.3975 52.0203 59.8542 51.7301C59.5303 51.5572 59.1426 51.3824 58.6477 51.1985C59.6892 51.1596 60.7207 51.29 61.8346 51.5744C63.0064 52.2514 64.765 53.6498 65.3605 55.484C65.806 56.8633 65.4211 58.6348 64.7207 60.3258C64.0264 62.0021 63.0528 63.5266 62.4212 64.3705L62.4204 64.3715C61.4438 65.6865 61.7118 67.135 62.6306 67.8412C63.0866 68.1916 63.6873 68.3414 64.3215 68.1927C64.9529 68.0446 65.5885 67.6087 66.1492 66.8426C66.7249 66.0588 67.4963 64.5889 68.0406 62.9195C68.5838 61.2534 68.9172 59.339 68.5652 57.682L68.5648 57.68C68.492 57.3478 68.4142 57.0288 68.322 56.7178C70.5048 60.8373 69.6408 65.8032 67.0265 68.7243ZM66.6996 69.1536L66.696 69.1554C66.6991 69.1538 66.7016 69.1527 66.6996 69.1536Z" fill="#232325" stroke="url(#paint10_linear_6221_52873)" stroke-width="0.654545"/>
<defs>
<linearGradient id="paint0_linear_6221_52873" x1="86.9783" y1="52.0173" x2="101.798" y2="52.0173" gradientUnits="userSpaceOnUse">
<stop stop-color="#5394F5"/>
<stop offset="0.72"/>
</linearGradient>
<linearGradient id="paint1_linear_6221_52873" x1="86.9783" y1="52.0173" x2="101.798" y2="52.0173" gradientUnits="userSpaceOnUse">
<stop stop-color="#5394F5"/>
<stop offset="0.72"/>
</linearGradient>
<linearGradient id="paint2_linear_6221_52873" x1="86.9783" y1="72.0941" x2="101.798" y2="72.0941" gradientUnits="userSpaceOnUse">
<stop stop-color="#5394F5"/>
<stop offset="0.72"/>
</linearGradient>
<linearGradient id="paint3_linear_6221_52873" x1="86.9783" y1="72.0941" x2="101.798" y2="72.0941" gradientUnits="userSpaceOnUse">
<stop stop-color="#5394F5"/>
<stop offset="0.72"/>
</linearGradient>
<linearGradient id="paint4_linear_6221_52873" x1="32.0146" y1="106.153" x2="46.7792" y2="106.153" gradientUnits="userSpaceOnUse">
<stop stop-color="#5394F5"/>
<stop offset="0.72"/>
</linearGradient>
<linearGradient id="paint5_linear_6221_52873" x1="32.0146" y1="106.153" x2="46.7792" y2="106.153" gradientUnits="userSpaceOnUse">
<stop stop-color="#5394F5"/>
<stop offset="0.72"/>
</linearGradient>
<linearGradient id="paint6_linear_6221_52873" x1="70.0095" y1="106.153" x2="84.7741" y2="106.153" gradientUnits="userSpaceOnUse">
<stop stop-color="#5394F5"/>
<stop offset="0.72"/>
</linearGradient>
<linearGradient id="paint7_linear_6221_52873" x1="70.0095" y1="106.153" x2="84.7741" y2="106.153" gradientUnits="userSpaceOnUse">
<stop stop-color="#5394F5"/>
<stop offset="0.72"/>
</linearGradient>
<linearGradient id="paint8_linear_6221_52873" x1="37.1326" y1="61.4871" x2="80.6001" y2="61.4871" gradientUnits="userSpaceOnUse">
<stop stop-color="#5394F5"/>
<stop offset="0.72"/>
</linearGradient>
<linearGradient id="paint9_linear_6221_52873" x1="47.5371" y1="62.9254" x2="61.3765" y2="62.9254" gradientUnits="userSpaceOnUse">
<stop stop-color="#5394F5"/>
<stop offset="0.72"/>
</linearGradient>
<linearGradient id="paint10_linear_6221_52873" x1="57.1165" y1="60.8289" x2="69.8912" y2="60.8289" gradientUnits="userSpaceOnUse">
<stop stop-color="#5394F5"/>
<stop offset="0.72"/>
</linearGradient>
</defs>
</svg>
